<svg width="42" height="41" viewBox="0 0 42 41" fill="none" xmlns="http://www.w3.org/2000/svg">
<path d="M14.6006 30.2238C12.2963 31.4966 11.0102 33.5838 11.7295 34.886C12.1371 35.624 13.1012 35.9519 14.2787 35.8656C13.4264 35.7983 12.7519 35.4718 12.4285 34.886C11.7099 33.5838 12.9953 31.4966 15.3003 30.2238C16.2985 29.6735 17.3244 29.3655 18.2251 29.2996C17.1813 29.2179 15.8696 29.5244 14.6006 30.2238Z" fill="black"/>
<mask id="mask0_3_216" style="mask-type:luminance" maskUnits="userSpaceOnUse" x="3" y="4" width="26" height="31">
<path d="M3.75208 4.70349H28.2605V34.9618H3.75208V4.70349Z" fill="white"/>
</mask>
<g mask="url(#mask0_3_216)">
<path d="M14.575 29.8224C15.6079 29.3461 16.6544 29.1059 17.586 29.0855V10.1036C23.6056 9.99136 26.6661 8.38395 28.2118 6.91158C25.8303 5.55986 23.0781 4.7865 20.1435 4.7865C11.0989 4.7865 3.76611 12.1189 3.76611 21.1636C3.76611 26.9114 6.72699 31.9661 11.2065 34.8884C11.1925 34.8621 11.1778 34.8358 11.1648 34.8081C10.4479 33.2529 11.9743 31.0209 14.575 29.8224Z" fill="black"/>
</g>
<mask id="mask1_3_216" style="mask-type:luminance" maskUnits="userSpaceOnUse" x="13" y="4" width="24" height="34">
<path d="M13.5354 4.44849H36.5203V37.5127H13.5354V4.44849Z" fill="white"/>
</mask>
<g mask="url(#mask1_3_216)">
<path d="M33.5271 11.7234C33.9697 9.7775 34.3892 5.46806 29.7816 4.44849L29.7799 4.4569C32.3637 5.32602 33.7372 10.5161 28.2437 12.5399C25.3708 13.5987 20.757 13.9635 20.757 13.9635V31.0013H20.7352C20.9477 32.4993 19.4855 34.3862 17.1704 35.4532C15.919 36.0301 14.6476 36.2613 13.5848 36.1739C15.5931 37.0529 17.8108 37.5411 20.1435 37.5411C29.1882 37.5411 36.5206 30.209 36.5206 21.1637C36.5206 17.6486 35.4126 14.3921 33.5271 11.7234Z" fill="#751A1A"/>
</g>
</svg>
